<?xml version="1.0" encoding="UTF-8" standalone="no"?><!DOCTYPE svg PUBLIC "-//W3C//DTD SVG 1.1//EN" "http://www.w3.org/Graphics/SVG/1.1/DTD/svg11.dtd"><svg width="100%" height="100%" viewBox="0 0 1498 1792" version="1.1" xmlns="http://www.w3.org/2000/svg" xmlns:xlink="http://www.w3.org/1999/xlink" xml:space="preserve" xmlns:serif="http://www.serif.com/" style="fill-rule:evenodd;clip-rule:evenodd;stroke-miterlimit:10;"><g id="Ebene-1" serif:id="Ebene 1"><path d="M338.381,1637.362c0,0 6.467,74.933 120.946,85.996c58.683,5.675 149.242,-49.842 173.533,-266.287c44.321,-394.896 30.05,-582.546 30.05,-582.546c0,0 -366.596,378.213 -324.529,-54.492c0,0 -528.863,48.075 -162.262,-288.471c0,0 -306.5,-330.537 114.183,-354.579c0,0 108.175,-252.408 288.471,0c0,0 80.104,-146.238 169.263,-112.183c89.158,34.058 131.225,64.104 83.15,202.329c0,0 246.4,78.129 138.225,300.492c0,0 367.213,197.208 27.454,321.112c0,0 21.862,430.108 -261.217,45.483c0,0 -27.512,758.133 31.596,765.35c59.108,7.213 47.558,39.388 106.008,-188.408c5.562,-21.683 -35.775,186.804 54.1,197.662c67.6,8.171 64.25,-64.525 87.688,-177.1c8.3,-39.871 8.458,334.013 98.604,129.679c90.146,-204.329 253.304,-398.929 88.662,-441.538c-169.042,-43.75 -85.667,435.583 20.267,492.621c0,0 9.546,-4.213 110.429,-173.529c46.55,-78.129 213.346,205.296 21.033,199.929" style="fill:#77923c;fill-rule:nonzero;stroke:#010303;stroke-width:20.83px;"/></g></svg>